<svg width="356" height="356" viewBox="0 0 356 356" fill="none" xmlns="http://www.w3.org/2000/svg">
<rect width="356" height="356" rx="71" fill="url(#paint0_linear)"/>
<path d="M297.24 132.981C292.67 153.627 328.081 155.705 328.081 131.429C328.081 86.7761 187.152 78.1101 179.582 127.23C179.374 128.585 179.266 130.685 179.266 132.129L187.03 129.36C187.03 106.936 221.615 99.084 254.105 99.3253C289.811 99.5905 323.121 111.781 323.121 131.916C323.121 152.262 296.161 147.892 300.259 132.555C302.08 125.739 315.195 127.175 312.578 137.452L312.768 137.028C317.461 124.55 299.55 122.545 297.24 132.981Z" fill="white"/>
<path d="M297.24 132.981C292.67 153.627 328.081 155.705 328.081 131.429C328.081 86.7761 187.152 78.1101 179.582 127.23C179.374 128.585 179.266 130.685 179.266 132.129L187.03 129.36C187.03 106.936 221.615 99.084 254.105 99.3253C289.811 99.5905 323.121 111.781 323.121 131.916C323.121 152.262 296.161 147.892 300.259 132.555C302.08 125.739 315.195 127.175 312.578 137.452L312.768 137.028C317.461 124.55 299.55 122.545 297.24 132.981Z" fill="white"/>
<path d="M57.8413 132.981C62.4106 153.627 27 155.705 27 131.429C27 86.7761 167.928 78.1101 175.499 127.23C175.707 128.585 175.815 130.685 175.815 132.129L168.05 129.36C168.05 106.936 133.466 99.0839 100.976 99.3253C65.27 99.5905 31.9605 111.781 31.9605 131.916C31.9605 152.262 58.9196 147.892 54.8218 132.555C53.0007 125.739 39.8862 127.175 42.5036 137.452L42.3128 137.028C37.6205 124.55 55.5315 122.545 57.8413 132.981Z" fill="white"/>
<path d="M57.8413 132.981C62.4106 153.627 27 155.705 27 131.429C27 86.7761 167.928 78.1101 175.499 127.23C175.707 128.585 175.815 130.685 175.815 132.129L168.05 129.36C168.05 106.936 133.466 99.0839 100.976 99.3253C65.27 99.5905 31.9605 111.781 31.9605 131.916C31.9605 152.262 58.9196 147.892 54.8218 132.555C53.0007 125.739 39.8862 127.175 42.5036 137.452L42.3128 137.028C37.6205 124.55 55.5315 122.545 57.8413 132.981Z" fill="white"/>
<path d="M215.338 219.269C206.686 236.393 183.978 261 177.54 261V206.731C179.367 204.428 179.204 181.266 179.204 165.851C179.204 165.851 183.771 168.728 187.715 170.35C193.492 172.723 204.329 173.73 207.861 173.661C207.861 173.661 194.154 170.966 190 168.934C185.848 166.902 181.902 164.412 179.204 161.946V132.383C188.757 102.785 249.396 117.937 249.396 121.431C249.396 127.186 235.69 137.463 235.69 137.463C235.69 137.463 247.414 148.172 254.38 159.662C261.234 170.966 262.687 182.066 261.026 185.354C259.365 188.643 252.304 189.26 244.204 189.26C236.104 189.26 225.097 187.41 225.097 187.41C225.097 187.41 222.813 204.47 215.338 219.269Z" fill="white"/>
<path d="M139.549 219.269C148.244 236.393 171.069 261 177.54 261V206.731C175.703 204.428 175.867 181.266 175.867 165.851C175.867 165.851 171.277 168.728 167.312 170.35C161.506 172.723 150.612 173.73 147.064 173.661C147.064 173.661 160.84 170.966 165.015 168.934C169.19 166.902 173.156 164.412 175.867 161.946V132.383C166.266 102.785 105.315 117.937 105.315 121.431C105.315 127.186 119.092 137.463 119.092 137.463C119.092 137.463 107.307 148.172 100.305 159.662C93.4169 170.966 91.9557 182.066 93.6256 185.354C95.2956 188.643 102.393 189.26 110.534 189.26C118.675 189.26 129.738 187.41 129.738 187.41C129.738 187.41 132.034 204.47 139.549 219.269Z" fill="white"/>
<defs>
<linearGradient id="paint0_linear" x1="178" y1="0" x2="178" y2="356" gradientUnits="userSpaceOnUse">
<stop stop-color="#8EDEA6"/>
<stop offset="0.494792" stop-color="#3AADAA"/>
<stop offset="1" stop-color="#447C8C"/>
</linearGradient>
</defs>
</svg>
