<svg width="45" height="45" viewBox="0 0 45 45" fill="none" xmlns="http://www.w3.org/2000/svg">
<path d="M22.5 0C10.1109 0 0 10.1118 0 22.5C0 34.8891 10.1118 45 22.5 45C34.8891 45 45 34.8882 45 22.5C45 10.1109 34.8882 0 22.5 0ZM37.7613 9.80068C40.5703 13.1704 42.2851 17.4814 42.3589 22.1836C38.838 21.3601 34.9277 21.3047 30.9454 22.0307C29.9092 22.2196 28.873 22.4596 27.8429 22.7479C27.5001 21.8153 27.1362 20.8907 26.7495 19.9749C26.3549 19.0406 25.9383 18.1222 25.5023 17.2169C30.2476 15.4046 35.3892 12.7063 37.7613 9.80068ZM22.5 2.63672C27.6697 2.63672 32.3833 4.62217 35.9209 7.86973C34.541 9.75146 30.6088 12.491 24.3 14.8535C22.0975 10.7525 19.4563 6.98379 16.4048 3.59473C18.3261 2.97334 20.3748 2.63672 22.5 2.63672ZM13.7944 4.64941C16.9066 7.98311 19.5838 11.7062 21.789 15.728C15.2253 17.8523 8.57988 18.7189 3.11572 18.1591C4.44639 12.2133 8.4498 7.26592 13.7944 4.64941ZM2.63672 22.5C2.63672 21.9164 2.66396 21.339 2.71318 20.7686C3.91904 20.896 5.17676 20.9602 6.47666 20.9602C11.6033 20.9602 17.3628 19.974 23.0186 18.1011C23.8816 19.8677 24.6577 21.6853 25.3424 23.5477C23.1372 24.3404 20.9909 25.3485 18.9756 26.5482C14.0344 29.4899 10.4194 33.2745 8.92002 36.9817C5.05547 33.3554 2.63672 28.205 2.63672 22.5ZM22.5 42.3633C18.2558 42.3633 14.3183 41.0247 11.0865 38.7475C12.0885 35.3619 15.4775 31.6995 20.3247 28.8141C22.0324 27.7963 24.0293 26.8374 26.2028 26.0578C27.7436 30.9006 28.6875 36.0123 28.9872 41.2743C26.9534 41.9792 24.7711 42.3633 22.5 42.3633ZM31.5589 40.1748C31.1933 35.049 30.2388 30.0586 28.7068 25.265C32.9783 24.0908 37.7227 23.6971 42.2218 24.8643C41.4255 31.5448 37.3017 37.219 31.5589 40.1748Z" fill="#D1D1D1"/>
</svg>
