<svg width="34" height="34" viewBox="0 0 34 34" fill="none" xmlns="http://www.w3.org/2000/svg">
<path d="M24.084 2.83301H9.91732C6.0053 2.83301 2.83398 6.00432 2.83398 9.91634V24.083C2.83398 27.995 6.0053 31.1663 9.91732 31.1663H24.084C27.996 31.1663 31.1673 27.995 31.1673 24.083V9.91634C31.1673 6.00432 27.996 2.83301 24.084 2.83301Z" stroke="#0A0A0A" stroke-width="3" stroke-linecap="round" stroke-linejoin="round"/>
<path d="M22.6666 16.1079C22.8414 17.2869 22.64 18.4911 22.0911 19.549C21.5421 20.607 20.6735 21.4649 19.6089 22.0008C18.5442 22.5367 17.3377 22.7232 16.1609 22.5338C14.9842 22.3445 13.8971 21.7889 13.0543 20.9461C12.2115 20.1033 11.6559 19.0162 11.4665 17.8394C11.2771 16.6626 11.4637 15.4561 11.9995 14.3915C12.5354 13.3268 13.3933 12.4582 14.4513 11.9093C15.5093 11.3603 16.7134 11.1589 17.8924 11.3338C19.0951 11.5121 20.2085 12.0725 21.0681 12.9322C21.9278 13.7919 22.4882 14.9053 22.6666 16.1079Z" stroke="#0A0A0A" stroke-width="3" stroke-linecap="round" stroke-linejoin="round"/>
<path d="M24.791 9.20801H24.805" stroke="#0A0A0A" stroke-width="3" stroke-linecap="round" stroke-linejoin="round"/>
</svg>
