<svg width="47" height="47" viewBox="0 0 47 47" fill="none" xmlns="http://www.w3.org/2000/svg">
<path d="M33.292 3.91699H13.7087C8.30087 3.91699 3.91699 8.30087 3.91699 13.7087V33.292C3.91699 38.6998 8.30087 43.0837 13.7087 43.0837H33.292C38.6998 43.0837 43.0837 38.6998 43.0837 33.292V13.7087C43.0837 8.30087 38.6998 3.91699 33.292 3.91699Z" stroke="#D1D1D1" stroke-width="3" stroke-linecap="round" stroke-linejoin="round"/>
<path d="M31.3329 22.2664C31.5746 23.8962 31.2962 25.5607 30.5374 27.0232C29.7785 28.4857 28.5778 29.6716 27.1061 30.4124C25.6344 31.1531 23.9666 31.411 22.3398 31.1492C20.7131 30.8875 19.2104 30.1194 18.0453 28.9544C16.8803 27.7893 16.1122 26.2866 15.8505 24.6599C15.5887 23.0331 15.8466 21.3653 16.5873 19.8936C17.3281 18.4219 18.514 17.2212 19.9765 16.4623C21.439 15.7035 23.1035 15.4251 24.7333 15.6668C26.3958 15.9133 27.9349 16.688 29.1233 17.8764C30.3117 19.0648 31.0864 20.6039 31.3329 22.2664Z" stroke="#D1D1D1" stroke-width="3" stroke-linecap="round" stroke-linejoin="round"/>
<path d="M34.2705 12.7295H34.2907" stroke="#D1D1D1" stroke-width="3" stroke-linecap="round" stroke-linejoin="round"/>
</svg>
