<svg width="53" height="54" viewBox="0 0 53 54" fill="none" xmlns="http://www.w3.org/2000/svg">
<path d="M35.334 18C38.8481 18 42.2183 19.4223 44.7032 21.9541C47.188 24.4858 48.584 27.9196 48.584 31.5V47.25H39.7507V31.5C39.7507 30.3065 39.2853 29.1619 38.457 28.318C37.6288 27.4741 36.5054 27 35.334 27C34.1626 27 33.0392 27.4741 32.2109 28.318C31.3826 29.1619 30.9173 30.3065 30.9173 31.5V47.25H22.084V31.5C22.084 27.9196 23.48 24.4858 25.9648 21.9541C28.4497 19.4223 31.8199 18 35.334 18V18Z" stroke="#D1D1D1" stroke-width="3" stroke-linecap="round" stroke-linejoin="round"/>
<path d="M13.2493 20.25H4.41602V47.25H13.2493V20.25Z" stroke="#D1D1D1" stroke-width="3" stroke-linecap="round" stroke-linejoin="round"/>
<path d="M8.83268 13.5C11.2719 13.5 13.2493 11.4853 13.2493 9C13.2493 6.51472 11.2719 4.5 8.83268 4.5C6.39342 4.5 4.41602 6.51472 4.41602 9C4.41602 11.4853 6.39342 13.5 8.83268 13.5Z" stroke="#D1D1D1" stroke-width="3" stroke-linecap="round" stroke-linejoin="round"/>
</svg>
