<svg width="352" height="353" viewBox="0 0 352 353" fill="none" xmlns="http://www.w3.org/2000/svg">
<g clip-path="url(#clip0)">
<path d="M153.659 351.91C123.145 350.167 94.2659 342.977 73.1241 331.537C61.0275 325.109 53.1811 319.116 42.9372 308.875C25.2827 291.334 14.4938 271.396 7.08328 242.524C-2.83375 204.718 -2.83375 147.737 7.08328 109.06C15.9105 74.4132 32.0393 49.0277 57.2133 30.2882C76.5025 15.7978 103.202 5.8833 134.915 1.41633C153.005 -1.19849 198.231 -1.19849 216.867 1.52528C299.472 13.074 342.083 58.8333 350.474 144.904C353.307 173.885 351.564 211.909 346.442 234.789C335.98 280.766 314.62 311.926 280.946 330.011C255.554 343.739 231.361 349.949 195.616 351.91C175.564 353 175.346 353 153.659 351.91ZM183.083 288.61C195.289 278.478 207.276 262.026 214.469 245.575C221.008 230.757 224.931 209.621 223.732 195.893L223.187 189.792L227.873 187.286C241.387 180.531 258.169 166.041 268.631 151.986C274.298 144.36 282.254 128.78 285.414 118.974C288.247 110.149 290.318 99.6898 289.555 97.7287C288.792 95.5497 266.997 88.6858 256.208 87.0515C233.54 83.783 204.552 90.429 184.064 103.503C177.307 107.861 173.82 107.643 165.429 102.523C157.364 97.5108 145.05 92.3901 133.171 89.1216C126.741 87.3784 121.293 86.8336 110.068 86.7247C93.721 86.6157 84.131 88.25 69.5279 93.9154L61.1365 97.075L61.7904 101.106C64.2969 117.449 74.105 140.11 84.7848 154.274C94.9198 167.566 109.632 180.313 122.382 186.414L127.504 188.92V199.489C127.504 222.259 134.479 245.139 147.665 265.295C151.915 271.941 173.275 294.167 175.346 294.167C175.891 294.167 179.378 291.661 183.083 288.61V288.61Z" fill="#54BE61"/>
<path d="M169.788 268.345C160.089 257.995 150.826 239.8 147.556 224.438C145.595 215.286 145.595 188.811 147.556 180.749C149.3 173.123 153.659 165.605 158.236 161.901L161.833 159.177L156.493 156.889C149.191 153.62 144.941 154.601 138.947 160.811C136.332 163.535 133.825 166.694 133.498 167.784C132.953 169.418 131.863 169.963 128.921 169.963C124.78 169.963 119.113 166.585 109.959 158.741C96.1186 146.865 82.8232 124.095 82.8232 112.11C82.8232 106.989 82.9322 106.881 86.9644 106.009C89.144 105.573 99.8239 105.137 110.613 105.137C129.902 105.246 130.447 105.246 140.582 108.733C166.955 117.885 184.173 133.464 184.173 148.173C184.173 150.57 184.609 152.531 185.263 152.531C187.442 152.531 194.744 144.904 196.597 140.655C198.558 136.406 198.558 136.297 195.725 130.196C194.199 126.71 192.891 122.243 192.891 120.173C192.891 116.577 193.218 116.25 200.847 112.764C214.905 106.227 220.681 105.246 241.932 105.137C252.394 105.137 262.855 105.573 265.144 106.009C268.958 106.881 269.176 107.098 269.176 111.239C269.176 113.635 267.65 119.519 265.798 124.313C257.189 146.539 238.226 165.714 214.905 175.519C207.385 178.788 205.424 179.115 195.616 179.115C188.532 179.224 183.846 178.679 182.211 177.807C180.795 176.936 179.378 176.609 179.051 176.827C178.724 177.154 179.269 180.095 180.25 183.255C182.974 192.734 190.821 198.29 201.174 198.29H206.296L205.642 209.512C204.443 229.995 198.449 246.337 186.244 262.571C180.359 270.306 179.269 271.287 176.109 271.287C173.711 271.287 171.75 270.306 169.788 268.345V268.345Z" fill="#54BE61"/>
<path d="M168.916 294.929C141.127 273.03 124.235 238.166 124.235 202.757V192.189L119.113 189.683C112.357 186.414 102.113 179.115 94.3753 172.033C76.2849 155.581 60.592 124.748 58.1945 100.888L57.4316 93.9154L66.0409 90.6469C81.5159 84.7635 90.1251 83.3472 110.068 83.4561C124.78 83.5651 129.575 84.0009 136.441 85.8531C148.429 89.1216 160.743 94.2422 168.808 99.254L175.673 103.612L180.795 100.343C209.674 81.7129 249.016 77.6818 282.799 89.7753C288.684 91.8453 293.697 93.8064 293.915 94.1333C294.895 95.0049 291.299 114.289 288.793 122.025C285.523 132.048 277.677 147.628 271.901 155.255C261.439 169.2 244.656 183.8 231.252 190.555C226.784 192.843 226.675 193.06 227.329 196.983C228.201 202.757 226.021 222.259 223.406 232.61C219.047 249.061 210.873 264.75 199.321 278.696C193.11 286.213 178.18 299.614 176 299.614C175.455 299.614 172.186 297.435 168.916 294.929ZM187.443 252.765C190.494 248.298 194.417 240.89 196.161 236.314C199.43 227.925 202.7 212.127 202.7 205.263C202.7 201.559 202.591 201.559 197.796 201.559C184.173 201.559 175.455 191.753 175.455 176.609C175.455 171.161 176.872 167.784 178.071 169.854C178.507 170.508 180.904 172.142 183.411 173.449C193.982 178.897 210.546 175.193 228.419 163.208C237.9 156.889 250.868 143.379 256.317 134.009C260.458 127.036 266.67 111.456 265.689 110.585C264.382 109.277 252.612 107.861 242.804 107.861C230.053 107.861 218.175 110.149 207.495 114.507C195.398 119.519 195.507 119.41 198.777 126.383C203.354 136.188 201.828 144.577 194.308 151.55C191.584 154.165 183.084 159.068 181.449 159.068C181.122 159.068 180.904 156.344 180.904 153.076C180.904 142.943 176.436 135.099 165.756 127.036C156.711 120.172 148.864 116.032 137.313 112.11C127.505 108.733 126.197 108.515 110.613 108.406C91.7598 108.406 86.0929 109.277 86.0929 112.11C86.0929 117.558 94.9202 134.554 103.094 144.904C110.613 154.383 128.486 168.656 129.357 165.932C130.556 162.554 137.64 154.819 140.909 153.185C148.647 149.589 162.378 152.422 168.263 158.959C170.115 160.92 170.006 161.138 167.609 161.792C160.198 164.08 153.333 173.122 150.826 184.018C148.864 191.971 148.973 212.127 150.826 221.17C154.095 236.532 163.359 254.726 173.058 265.077L176 268.127L179.051 264.532C180.686 262.571 184.5 257.232 187.443 252.765V252.765Z" fill="white"/>
</g>
<defs>
<clipPath id="clip0">
<rect width="352" height="353" fill="white"/>
</clipPath>
</defs>
</svg>
